# Made in Blockbench 5.1.6
mtllib drawbridge_70.mtl

o bridge
v 1.5 -0.5 -0.75
v 1.5 3.7286167935365873 0.78909064496551
v 1.5 3.771369311452296 0.6716290673672713
v 1.5 -0.4572474820842914 -0.8674615775982386
v -1.5 -0.5 -0.75
v -1.5 3.7286167935365873 0.78909064496551
v -1.5 3.771369311452296 0.6716290673672713
v -1.5 -0.4572474820842914 -0.8674615775982385
vt 0.9583333333333334 1
vt 0.9583333333333334 0
vt 1 0
vt 1 1
vt 0 0.9994216279936015
vt 0 0
vt 0.04164867507225983 0.000578372006398542
vt 0.04166859542898931 1
vt 1 0
vt 1 0.02777777777777779
vt 0 0.02777777777777779
vt 0 0
vt 1 0.9444444444444444
vt 1 0.9722222222222222
vt 0 0.9722222222222222
vt 0 0.9444444444444444
vt 1 0
vt 1 1
vt 0 1
vt 0 0
vt 0 0
vt 1 0
vt 1 1
vt 0 1
vn -1 -7.791354318908493e-18 6.347014330225737e-18
vn -1 -7.791354318908493e-18 6.347014330225737e-18
vn -5.1506714084928444e-18 0.9396926207859083 0.3420201433256689
vn -5.1506714084928444e-18 0.9396926207859083 0.3420201433256689
vn 8.629042650989688e-18 -0.3420201433256689 0.9396926207859083
vn -8.629042650989688e-18 0.3420201433256689 -0.9396926207859083
usemtl m_c0f34b00-4fde-d9dd-23d5-a53a1407d5d4
f 1/1/1 2/2/1 3/3/1 4/4/1
f 5/5/2 6/6/2 7/7/2 8/8/2
f 1/9/3 4/10/3 8/11/3 5/12/3
f 2/13/4 3/14/4 7/15/4 6/16/4
f 1/17/5 2/18/5 6/19/5 5/20/5
f 7/21/6 3/22/6 4/23/6 8/24/6