# Made in Blockbench 5.1.6
mtllib drawbridge_20.mtl

o bridge
v 1.5 -0.5 -0.75
v 1.5 1.0390906449655088 3.478616793536588
v 1.5 1.1565522225637475 3.4358642756208795
v 1.5 -0.38253842240176145 -0.7927525179157086
v -1.5 -0.5 -0.75
v -1.5 1.0390906449655088 3.478616793536588
v -1.5 1.1565522225637475 3.4358642756208795
v -1.5 -0.38253842240176145 -0.7927525179157086
vt 0.9583333333333334 1
vt 0.9583333333333334 0
vt 1 0
vt 1 1
vt 0 0.9994216279936015
vt 0 0
vt 0.04164867507225983 0.000578372006398542
vt 0.04166859542898931 1
vt 1 0
vt 1 0.02777777777777779
vt 0 0.02777777777777779
vt 0 0
vt 1 0.9444444444444444
vt 1 0.9722222222222222
vt 0 0.9722222222222222
vt 0 0.9444444444444444
vt 1 0
vt 1 1
vt 0 1
vt 0 0
vt 0 0
vt 1 0
vt 1 1
vt 0 1
vn -1 0 0
vn -1 0 0
vn 0 0.34202014332566866 0.9396926207859084
vn 0 0.34202014332566866 0.9396926207859084
vn 0 -0.9396926207859084 0.34202014332566866
vn 0 0.9396926207859084 -0.34202014332566866
usemtl m_c0f34b00-4fde-d9dd-23d5-a53a1407d5d4
f 1/1/1 2/2/1 3/3/1 4/4/1
f 5/5/2 6/6/2 7/7/2 8/8/2
f 1/9/3 4/10/3 8/11/3 5/12/3
f 2/13/4 3/14/4 7/15/4 6/16/4
f 1/17/5 2/18/5 6/19/5 5/20/5
f 7/21/6 3/22/6 4/23/6 8/24/6