# Made in Blockbench 5.1.6
mtllib gate_lever_up.mtl

g plate
v 0.125 -0.4375 0.125
v 0.125 -0.4375 -0.125
v 0.125 -0.5 0.125
v 0.125 -0.5 -0.125
v -0.125 -0.4375 0.125
v -0.125 -0.4375 -0.125
v -0.125 -0.5 0.125
v -0.125 -0.5 -0.125
vt 0.8125 0.75
vt 0.5625 0.75
vt 0.5625 0.6875
vt 0.8125 0.6875
vt 0.5625 0.6875
vt 0.5625 0.75
vt 0.8125 0.75
vt 0.8125 0.6875
vt 0.625 0.75
vt 0.375 0.75
vt 0.375 0.5
vt 0.625 0.5
vt 0.5625 0.5
vt 0.5625 0.75
vt 0.3125 0.75
vt 0.3125 0.5
vt 0.8125 0.6875
vt 0.8125 0.75
vt 0.5625 0.75
vt 0.5625 0.6875
vt 0.8125 0.75
vt 0.5625 0.75
vt 0.5625 0.6875
vt 0.8125 0.6875
vn 1 0 0
vn -1 0 0
vn 0 1 0
vn 0 -1 0
vn 0 0 1
vn 0 0 -1
usemtl m_160770a0-05c1-3bdf-9196-4b24a6e8bf80
f 2/1/1 1/2/1 3/3/1 4/4/1
f 7/5/2 5/6/2 6/7/2 8/8/2
f 5/9/3 1/10/3 2/11/3 6/12/3
f 4/13/4 3/14/4 7/15/4 8/16/4
f 3/17/5 1/18/5 5/19/5 7/20/5
f 6/21/6 2/22/6 4/23/6 8/24/6
g lever
v 0.06250000000000003 -0.1903651751922532 -0.07542397010417795
v 0.06250000000000003 -0.24319245790984062 -0.1887124434837592
v 0.0625 -0.4735863586412063 0.05664423668979063
v 0.0625 -0.5264136413587938 -0.056644236689790614
v -0.06249999999999997 -0.1903651751922532 -0.07542397010417795
v -0.06249999999999997 -0.24319245790984062 -0.1887124434837592
v -0.0625 -0.4735863586412063 0.056644236689790614
v -0.0625 -0.5264136413587938 -0.05664423668979063
vt 0.125 1
vt 0 1
vt 0 0.6875
vt 0.125 0.6875
vt 0.125 0.6875
vt 0.125 1
vt 0 1
vt 0 0.6875
vt 0 0.75
vt 0.125 0.75
vt 0.125 0.875
vt 0 0.875
vt 0.125 0.75
vt 0.125 0.875
vt 0 0.875
vt 0 0.75
vt 0.125 0.6875
vt 0.125 1
vt 0 1
vt 0 0.6875
vt 0.125 1
vt 0 1
vt 0 0.6875
vt 0.125 0.6875
vn 1 -6.011336385916536e-17 7.955063644401779e-17
vn -1 6.011336385916536e-17 -7.955063644401779e-17
vn 8.810076146486621e-17 0.9063077870366499 -0.42261826174069944
vn -8.810076146486621e-17 -0.9063077870366499 0.42261826174069944
vn -4.669235593138817e-17 0.42261826174069944 0.9063077870366499
vn 4.669235593138817e-17 -0.42261826174069944 -0.9063077870366499
usemtl m_86ac8680-28e7-6922-1512-315d5adb9041
f 10/25/7 9/26/7 11/27/7 12/28/7
f 15/29/8 13/30/8 14/31/8 16/32/8
f 13/33/9 9/34/9 10/35/9 14/36/9
f 12/37/10 11/38/10 15/39/10 16/40/10
f 11/41/11 9/42/11 13/43/11 15/44/11
f 14/45/12 10/46/12 12/47/12 16/48/12
