# Made in Blockbench 5.1.6
mtllib portcullis_open.mtl

o portcullis
v 0.5 1.5 0.0625
v 0.5 1.5 -0.0625
v 0.5 1.375 0.0625
v 0.5 1.375 -0.0625
v -0.5 1.5 0.0625
v -0.5 1.5 -0.0625
v -0.5 1.375 0.0625
v -0.5 1.375 -0.0625
v 0.4375 1.125 0.0625
v 0.4375 1.125 -0.0625
v 0.4375 1 0.0625
v 0.4375 1 -0.0625
v 0.3125 1.125 0.0625
v 0.3125 1.125 -0.0625
v 0.3125 1 0.0625
v 0.3125 1 -0.0625
v 0.1875 1.125 0.0625
v 0.1875 1.125 -0.0625
v 0.1875 1 0.0625
v 0.1875 1 -0.0625
v 0.0625 1.125 0.0625
v 0.0625 1.125 -0.0625
v 0.0625 1 0.0625
v 0.0625 1 -0.0625
v -0.0625 1.125 0.0625
v -0.0625 1.125 -0.0625
v -0.0625 1 0.0625
v -0.0625 1 -0.0625
v -0.1875 1.125 0.0625
v -0.1875 1.125 -0.0625
v -0.1875 1 0.0625
v -0.1875 1 -0.0625
v -0.3125 1.125 0.0625
v -0.3125 1.125 -0.0625
v -0.3125 1 0.0625
v -0.3125 1 -0.0625
v -0.4375 1.125 0.0625
v -0.4375 1.125 -0.0625
v -0.4375 1 0.0625
v -0.4375 1 -0.0625
v 0.5 0.75 0.0625
v 0.5 0.75 -0.0625
v 0.4375 0.75 0.0625
v 0.4375 0.75 -0.0625
v -0.4375 0.75 0.0625
v -0.4375 0.75 -0.0625
v -0.5 0.75 0.0625
v -0.5 0.75 -0.0625
v 0.3125 0.75 0.0625
v 0.3125 0.75 -0.0625
v 0.1875 0.75 0.0625
v 0.1875 0.75 -0.0625
v -0.1875 0.75 0.0625
v -0.1875 0.75 -0.0625
v -0.3125 0.75 0.0625
v -0.3125 0.75 -0.0625
v 0.0625 0.75 0.0625
v 0.0625 0.75 -0.0625
v -0.0625 0.75 0.0625
v -0.0625 0.75 -0.0625
v 0.5 1.375 0.0625
v 0.5 1.375 -0.0625
v 0.5 0.75 0.0625
v 0.5 0.75 -0.0625
v 0.4375 1.375 0.0625
v 0.4375 1.375 -0.0625
v 0.4375 0.75 0.0625
v 0.4375 0.75 -0.0625
v -0.4375 1.375 0.0625
v -0.4375 1.375 -0.0625
v -0.4375 0.75 0.0625
v -0.4375 0.75 -0.0625
v -0.5 1.375 0.0625
v -0.5 1.375 -0.0625
v -0.5 0.75 0.0625
v -0.5 0.75 -0.0625
v 0.3125 1.375 0.0625
v 0.3125 1.375 -0.0625
v 0.3125 0.75 0.0625
v 0.3125 0.75 -0.0625
v 0.1875 1.375 0.0625
v 0.1875 1.375 -0.0625
v 0.1875 0.75 0.0625
v 0.1875 0.75 -0.0625
v -0.1875 1.375 0.0625
v -0.1875 1.375 -0.0625
v -0.1875 0.75 0.0625
v -0.1875 0.75 -0.0625
v -0.3125 1.375 0.0625
v -0.3125 1.375 -0.0625
v -0.3125 0.75 0.0625
v -0.3125 0.75 -0.0625
v 0.0625 1.375 0.0625
v 0.0625 1.375 -0.0625
v 0.0625 0.75 0.0625
v 0.0625 0.75 -0.0625
v -0.0625 1.375 0.0625
v -0.0625 1.375 -0.0625
v -0.0625 0.75 0.0625
v -0.0625 0.75 -0.0625
vt 0.125 1
vt 0 1
vt 0 0.875
vt 0.125 0.875
vt 0.125 0.875
vt 0.125 1
vt 0 1
vt 0 0.875
vt 0 0.875
vt 1 0.875
vt 1 1
vt 0 1
vt 0 1
vt 1 1
vt 1 0.875
vt 0 0.875
vt 1 0.875
vt 1 1
vt 0 1
vt 0 0.875
vt 1 0.75
vt 0 0.75
vt 0 0.625
vt 1 0.625
vt 0.0625 0.875
vt 0.1875 0.875
vt 0.1875 1
vt 0.0625 1
vt 0.0625 1
vt 0.1875 1
vt 0.1875 0.875
vt 0.0625 0.875
vt 0.1875 0.875
vt 0.1875 1
vt 0.0625 1
vt 0.0625 0.875
vt 0.125 0.875
vt 0 0.875
vt 0 0.75
vt 0.125 0.75
vt 0.0625 0.875
vt 0.1875 0.875
vt 0.1875 1
vt 0.0625 1
vt 0.0625 1
vt 0.1875 1
vt 0.1875 0.875
vt 0.0625 0.875
vt 0.1875 0.875
vt 0.1875 1
vt 0.0625 1
vt 0.0625 0.875
vt 0.3125 0.875
vt 0.1875 0.875
vt 0.1875 0.75
vt 0.3125 0.75
vt 0.0625 0.875
vt 0.1875 0.875
vt 0.1875 1
vt 0.0625 1
vt 0.0625 1
vt 0.1875 1
vt 0.1875 0.875
vt 0.0625 0.875
vt 0.1875 0.875
vt 0.1875 1
vt 0.0625 1
vt 0.0625 0.875
vt 0.625 0.875
vt 0.5 0.875
vt 0.5 0.75
vt 0.625 0.75
vt 0.0625 0.875
vt 0.1875 0.875
vt 0.1875 1
vt 0.0625 1
vt 0.0625 1
vt 0.1875 1
vt 0.1875 0.875
vt 0.0625 0.875
vt 0.1875 0.875
vt 0.1875 1
vt 0.0625 1
vt 0.0625 0.875
vt 0.9375 0.8125
vt 0.8125 0.8125
vt 0.8125 0.6875
vt 0.9375 0.6875
vt 0.9375 0.5625
vt 1 0.5625
vt 1 0.4375
vt 0.9375 0.4375
vt 0 0.5625
vt 0.0625 0.5625
vt 0.0625 0.4375
vt 0 0.4375
vt 0.3125 0.5625
vt 0.4375 0.5625
vt 0.4375 0.4375
vt 0.3125 0.4375
vt 0.0625 0.5625
vt 0.1875 0.5625
vt 0.1875 0.4375
vt 0.0625 0.4375
vt 0.75 0.5625
vt 0.875 0.5625
vt 0.875 0.4375
vt 0.75 0.4375
vt 0.8125 0
vt 0.8125 0.625
vt 0.9375 0.625
vt 0.9375 0
vt 0.0625 0.625
vt 0.1875 0.625
vt 0.1875 0
vt 0.0625 0
vt 0.9375 0
vt 0.9375 0.625
vt 1 0.625
vt 1 0
vt 0 0.625
vt 0.0625 0.625
vt 0.0625 0
vt 0 0
vt 0.0625 0
vt 0.0625 0.625
vt 0.1875 0.625
vt 0.1875 0
vt 0.875 0.625
vt 1 0.625
vt 1 0
vt 0.875 0
vt 0.0625 0
vt 0.0625 0.625
vt 0 0.625
vt 0 0
vt 0.9375 0.625
vt 1 0.625
vt 1 0
vt 0.9375 0
vt 0.625 0
vt 0.625 0.625
vt 0.75 0.625
vt 0.75 0
vt 0.3125 0.625
vt 0.4375 0.625
vt 0.4375 0
vt 0.3125 0
vt 0.6875 0.625
vt 0.8125 0.625
vt 0.8125 0
vt 0.6875 0
vt 0.1875 0
vt 0.1875 0.625
vt 0.3125 0.625
vt 0.3125 0
vt 0.3125 0
vt 0.3125 0.625
vt 0.4375 0.625
vt 0.4375 0
vt 0.625 0.625
vt 0.75 0.625
vt 0.75 0
vt 0.625 0
vt 0.1875 0.625
vt 0.3125 0.625
vt 0.3125 0
vt 0.1875 0
vt 0.6875 0
vt 0.6875 0.625
vt 0.8125 0.625
vt 0.8125 0
vt 0.625 0
vt 0.625 0.625
vt 0.5 0.625
vt 0.5 0
vt 0.4375 0.625
vt 0.5625 0.625
vt 0.5625 0
vt 0.4375 0
vt 0.4375 0.625
vt 0.5625 0.625
vt 0.5625 0
vt 0.4375 0
vt 0.4375 0
vt 0.4375 0.625
vt 0.5625 0.625
vt 0.5625 0
vn 1 0 0
vn -1 0 0
vn 0 1 0
vn 0 1 0
vn 0 0 1
vn 0 0 -1
vn 0 1 0
vn 0 1 0
vn 0 0 1
vn 0 0 -1
vn 0 1 0
vn 0 1 0
vn 0 0 1
vn 0 0 -1
vn 0 1 0
vn 0 1 0
vn 0 0 1
vn 0 0 -1
vn 0 1 0
vn 0 1 0
vn 0 0 1
vn 0 0 -1
vn 0 1 0
vn 0 1 0
vn 0 1 0
vn 0 1 0
vn 0 1 0
vn -1 0 0
vn 1 0 0
vn 0 0 1
vn 0 0 -1
vn -1 0 0
vn 1 0 0
vn 0 0 1
vn 0 0 -1
vn -1 0 0
vn 1 0 0
vn 0 0 -1
vn 0 0 1
vn -1 0 0
vn 1 0 0
vn 0 0 -1
vn 0 0 1
vn -1 0 0
vn 1 0 0
vn 0 0 -1
vn 0 0 1
usemtl m_6a67a50b-8cb8-67a6-2e0d-bd78c825d5a3
f 2/1/1 1/2/1 3/3/1 4/4/1
f 7/5/2 5/6/2 6/7/2 8/8/2
f 5/9/3 1/10/3 2/11/3 6/12/3
f 7/13/4 3/14/4 4/15/4 8/16/4
f 3/17/5 1/18/5 5/19/5 7/20/5
f 6/21/6 2/22/6 4/23/6 8/24/6
f 13/25/7 9/26/7 10/27/7 14/28/7
f 15/29/8 11/30/8 12/31/8 16/32/8
f 11/33/9 9/34/9 13/35/9 15/36/9
f 14/37/10 10/38/10 12/39/10 16/40/10
f 21/41/11 17/42/11 18/43/11 22/44/11
f 23/45/12 19/46/12 20/47/12 24/48/12
f 19/49/13 17/50/13 21/51/13 23/52/13
f 22/53/14 18/54/14 20/55/14 24/56/14
f 29/57/15 25/58/15 26/59/15 30/60/15
f 31/61/16 27/62/16 28/63/16 32/64/16
f 27/65/17 25/66/17 29/67/17 31/68/17
f 30/69/18 26/70/18 28/71/18 32/72/18
f 37/73/19 33/74/19 34/75/19 38/76/19
f 39/77/20 35/78/20 36/79/20 40/80/20
f 35/81/21 33/82/21 37/83/21 39/84/21
f 38/85/22 34/86/22 36/87/22 40/88/22
f 43/89/23 41/90/23 42/91/23 44/92/23
f 47/93/24 45/94/24 46/95/24 48/96/24
f 51/97/25 49/98/25 50/99/25 52/100/25
f 55/101/26 53/102/26 54/103/26 56/104/26
f 59/105/27 57/106/27 58/107/27 60/108/27
f 63/109/28 61/110/28 62/111/28 64/112/28
f 66/113/29 65/114/29 67/115/29 68/116/29
f 63/117/30 61/118/30 65/119/30 67/120/30
f 66/121/31 62/122/31 64/123/31 68/124/31
f 71/125/32 69/126/32 70/127/32 72/128/32
f 74/129/33 73/130/33 75/131/33 76/132/33
f 71/133/34 69/134/34 73/135/34 75/136/34
f 74/137/35 70/138/35 72/139/35 76/140/35
f 79/141/36 77/142/36 78/143/36 80/144/36
f 82/145/37 81/146/37 83/147/37 84/148/37
f 81/149/38 77/150/38 79/151/38 83/152/38
f 80/153/39 78/154/39 82/155/39 84/156/39
f 87/157/40 85/158/40 86/159/40 88/160/40
f 90/161/41 89/162/41 91/163/41 92/164/41
f 89/165/42 85/166/42 87/167/42 91/168/42
f 88/169/43 86/170/43 90/171/43 92/172/43
f 95/173/44 93/174/44 94/175/44 96/176/44
f 98/177/45 97/178/45 99/179/45 100/180/45
f 97/181/46 93/182/46 95/183/46 99/184/46
f 96/185/47 94/186/47 98/187/47 100/188/47