# Made in Blockbench 5.1.6
mtllib portcullis.mtl

g portcullis
v 0.5 1.375 0.0625
v 0.5 1.375 -0.0625
v 0.5 -1.5 0.0625
v 0.5 -1.5 -0.0625
v 0.4375 1.375 0.0625
v 0.4375 1.375 -0.0625
v 0.4375 -1.5 0.0625
v 0.4375 -1.5 -0.0625
v -0.4375 1.375 0.0625
v -0.4375 1.375 -0.0625
v -0.4375 -1.5 0.0625
v -0.4375 -1.5 -0.0625
v -0.5 1.375 0.0625
v -0.5 1.375 -0.0625
v -0.5 -1.5 0.0625
v -0.5 -1.5 -0.0625
v 0.3125 1.375 0.0625
v 0.3125 1.375 -0.0625
v 0.3125 -1.5 0.0625
v 0.3125 -1.5 -0.0625
v 0.1875 1.375 0.0625
v 0.1875 1.375 -0.0625
v 0.1875 -1.5 0.0625
v 0.1875 -1.5 -0.0625
v -0.1875 1.375 0.0625
v -0.1875 1.375 -0.0625
v -0.1875 -1.5 0.0625
v -0.1875 -1.5 -0.0625
v -0.3125 1.375 0.0625
v -0.3125 1.375 -0.0625
v -0.3125 -1.5 0.0625
v -0.3125 -1.5 -0.0625
v 0.0625 1.375 0.0625
v 0.0625 1.375 -0.0625
v 0.0625 -1.5 0.0625
v 0.0625 -1.5 -0.0625
v -0.0625 1.375 0.0625
v -0.0625 1.375 -0.0625
v -0.0625 -1.5 0.0625
v -0.0625 -1.5 -0.0625
v 0.5 1.5 0.0625
v 0.5 1.5 -0.0625
v 0.5 1.375 0.0625
v 0.5 1.375 -0.0625
v -0.5 1.5 0.0625
v -0.5 1.5 -0.0625
v -0.5 1.375 0.0625
v -0.5 1.375 -0.0625
v 0.4375 -1.125 0.0625
v 0.4375 -1.125 -0.0625
v 0.4375 -1.25 0.0625
v 0.4375 -1.25 -0.0625
v 0.3125 -1.125 0.0625
v 0.3125 -1.125 -0.0625
v 0.3125 -1.25 0.0625
v 0.3125 -1.25 -0.0625
v 0.1875 -1.125 0.0625
v 0.1875 -1.125 -0.0625
v 0.1875 -1.25 0.0625
v 0.1875 -1.25 -0.0625
v 0.0625 -1.125 0.0625
v 0.0625 -1.125 -0.0625
v 0.0625 -1.25 0.0625
v 0.0625 -1.25 -0.0625
v -0.0625 -1.125 0.0625
v -0.0625 -1.125 -0.0625
v -0.0625 -1.25 0.0625
v -0.0625 -1.25 -0.0625
v -0.1875 -1.125 0.0625
v -0.1875 -1.125 -0.0625
v -0.1875 -1.25 0.0625
v -0.1875 -1.25 -0.0625
v -0.3125 -1.125 0.0625
v -0.3125 -1.125 -0.0625
v -0.3125 -1.25 0.0625
v -0.3125 -1.25 -0.0625
v -0.4375 -1.125 0.0625
v -0.4375 -1.125 -0.0625
v -0.4375 -1.25 0.0625
v -0.4375 -1.25 -0.0625
v 0.4375 1.125 0.0625
v 0.4375 1.125 -0.0625
v 0.4375 1 0.0625
v 0.4375 1 -0.0625
v 0.3125 1.125 0.0625
v 0.3125 1.125 -0.0625
v 0.3125 1 0.0625
v 0.3125 1 -0.0625
v 0.1875 1.125 0.0625
v 0.1875 1.125 -0.0625
v 0.1875 1 0.0625
v 0.1875 1 -0.0625
v 0.0625 1.125 0.0625
v 0.0625 1.125 -0.0625
v 0.0625 1 0.0625
v 0.0625 1 -0.0625
v -0.0625 1.125 0.0625
v -0.0625 1.125 -0.0625
v -0.0625 1 0.0625
v -0.0625 1 -0.0625
v -0.1875 1.125 0.0625
v -0.1875 1.125 -0.0625
v -0.1875 1 0.0625
v -0.1875 1 -0.0625
v -0.3125 1.125 0.0625
v -0.3125 1.125 -0.0625
v -0.3125 1 0.0625
v -0.3125 1 -0.0625
v -0.4375 1.125 0.0625
v -0.4375 1.125 -0.0625
v -0.4375 1 0.0625
v -0.4375 1 -0.0625
v 0.4375 0.75 0.0625
v 0.4375 0.75 -0.0625
v 0.4375 0.625 0.0625
v 0.4375 0.625 -0.0625
v 0.3125 0.75 0.0625
v 0.3125 0.75 -0.0625
v 0.3125 0.625 0.0625
v 0.3125 0.625 -0.0625
v 0.1875 0.75 0.0625
v 0.1875 0.75 -0.0625
v 0.1875 0.625 0.0625
v 0.1875 0.625 -0.0625
v 0.0625 0.75 0.0625
v 0.0625 0.75 -0.0625
v 0.0625 0.625 0.0625
v 0.0625 0.625 -0.0625
v -0.0625 0.75 0.0625
v -0.0625 0.75 -0.0625
v -0.0625 0.625 0.0625
v -0.0625 0.625 -0.0625
v -0.1875 0.75 0.0625
v -0.1875 0.75 -0.0625
v -0.1875 0.625 0.0625
v -0.1875 0.625 -0.0625
v -0.3125 0.75 0.0625
v -0.3125 0.75 -0.0625
v -0.3125 0.625 0.0625
v -0.3125 0.625 -0.0625
v -0.4375 0.75 0.0625
v -0.4375 0.75 -0.0625
v -0.4375 0.625 0.0625
v -0.4375 0.625 -0.0625
v 0.4375 0.375 0.0625
v 0.4375 0.375 -0.0625
v 0.4375 0.25 0.0625
v 0.4375 0.25 -0.0625
v 0.3125 0.375 0.0625
v 0.3125 0.375 -0.0625
v 0.3125 0.25 0.0625
v 0.3125 0.25 -0.0625
v 0.1875 0.375 0.0625
v 0.1875 0.375 -0.0625
v 0.1875 0.25 0.0625
v 0.1875 0.25 -0.0625
v 0.0625 0.375 0.0625
v 0.0625 0.375 -0.0625
v 0.0625 0.25 0.0625
v 0.0625 0.25 -0.0625
v -0.0625 0.375 0.0625
v -0.0625 0.375 -0.0625
v -0.0625 0.25 0.0625
v -0.0625 0.25 -0.0625
v -0.1875 0.375 0.0625
v -0.1875 0.375 -0.0625
v -0.1875 0.25 0.0625
v -0.1875 0.25 -0.0625
v -0.3125 0.375 0.0625
v -0.3125 0.375 -0.0625
v -0.3125 0.25 0.0625
v -0.3125 0.25 -0.0625
v -0.4375 0.375 0.0625
v -0.4375 0.375 -0.0625
v -0.4375 0.25 0.0625
v -0.4375 0.25 -0.0625
v 0.4375 0 0.0625
v 0.4375 0 -0.0625
v 0.4375 -0.125 0.0625
v 0.4375 -0.125 -0.0625
v 0.3125 0 0.0625
v 0.3125 0 -0.0625
v 0.3125 -0.125 0.0625
v 0.3125 -0.125 -0.0625
v 0.1875 0 0.0625
v 0.1875 0 -0.0625
v 0.1875 -0.125 0.0625
v 0.1875 -0.125 -0.0625
v 0.0625 0 0.0625
v 0.0625 0 -0.0625
v 0.0625 -0.125 0.0625
v 0.0625 -0.125 -0.0625
v -0.0625 0 0.0625
v -0.0625 0 -0.0625
v -0.0625 -0.125 0.0625
v -0.0625 -0.125 -0.0625
v -0.1875 0 0.0625
v -0.1875 0 -0.0625
v -0.1875 -0.125 0.0625
v -0.1875 -0.125 -0.0625
v -0.3125 0 0.0625
v -0.3125 0 -0.0625
v -0.3125 -0.125 0.0625
v -0.3125 -0.125 -0.0625
v -0.4375 0 0.0625
v -0.4375 0 -0.0625
v -0.4375 -0.125 0.0625
v -0.4375 -0.125 -0.0625
v 0.4375 -0.375 0.0625
v 0.4375 -0.375 -0.0625
v 0.4375 -0.5 0.0625
v 0.4375 -0.5 -0.0625
v 0.3125 -0.375 0.0625
v 0.3125 -0.375 -0.0625
v 0.3125 -0.5 0.0625
v 0.3125 -0.5 -0.0625
v 0.1875 -0.375 0.0625
v 0.1875 -0.375 -0.0625
v 0.1875 -0.5 0.0625
v 0.1875 -0.5 -0.0625
v 0.0625 -0.375 0.0625
v 0.0625 -0.375 -0.0625
v 0.0625 -0.5 0.0625
v 0.0625 -0.5 -0.0625
v -0.0625 -0.375 0.0625
v -0.0625 -0.375 -0.0625
v -0.0625 -0.5 0.0625
v -0.0625 -0.5 -0.0625
v -0.1875 -0.375 0.0625
v -0.1875 -0.375 -0.0625
v -0.1875 -0.5 0.0625
v -0.1875 -0.5 -0.0625
v -0.3125 -0.375 0.0625
v -0.3125 -0.375 -0.0625
v -0.3125 -0.5 0.0625
v -0.3125 -0.5 -0.0625
v -0.4375 -0.375 0.0625
v -0.4375 -0.375 -0.0625
v -0.4375 -0.5 0.0625
v -0.4375 -0.5 -0.0625
v 0.4375 -0.75 0.0625
v 0.4375 -0.75 -0.0625
v 0.4375 -0.875 0.0625
v 0.4375 -0.875 -0.0625
v 0.3125 -0.75 0.0625
v 0.3125 -0.75 -0.0625
v 0.3125 -0.875 0.0625
v 0.3125 -0.875 -0.0625
v 0.1875 -0.75 0.0625
v 0.1875 -0.75 -0.0625
v 0.1875 -0.875 0.0625
v 0.1875 -0.875 -0.0625
v 0.0625 -0.75 0.0625
v 0.0625 -0.75 -0.0625
v 0.0625 -0.875 0.0625
v 0.0625 -0.875 -0.0625
v -0.0625 -0.75 0.0625
v -0.0625 -0.75 -0.0625
v -0.0625 -0.875 0.0625
v -0.0625 -0.875 -0.0625
v -0.1875 -0.75 0.0625
v -0.1875 -0.75 -0.0625
v -0.1875 -0.875 0.0625
v -0.1875 -0.875 -0.0625
v -0.3125 -0.75 0.0625
v -0.3125 -0.75 -0.0625
v -0.3125 -0.875 0.0625
v -0.3125 -0.875 -0.0625
v -0.4375 -0.75 0.0625
v -0.4375 -0.75 -0.0625
v -0.4375 -0.875 0.0625
v -0.4375 -0.875 -0.0625
vt 0.4375 0
vt 0.4375 2.875
vt 0.5625 2.875
vt 0.5625 0
vt 0.4375 2.875
vt 0.5625 2.875
vt 0.5625 0
vt 0.4375 0
vt 0.5 0.5625
vt 0.5625 0.5625
vt 0.5625 0.4375
vt 0.5 0.4375
vt 0.5 0
vt 0.5 2.875
vt 0.5625 2.875
vt 0.5625 0
vt 0.5 2.875
vt 0.5625 2.875
vt 0.5625 0
vt 0.5 0
vt 0.4375 0
vt 0.4375 2.875
vt 0.5625 2.875
vt 0.5625 0
vt 0.4375 2.875
vt 0.5625 2.875
vt 0.5625 0
vt 0.4375 0
vt 0.5 0.5625
vt 0.5625 0.5625
vt 0.5625 0.4375
vt 0.5 0.4375
vt 0.5 0
vt 0.5 2.875
vt 0.5625 2.875
vt 0.5625 0
vt 0.5 2.875
vt 0.5625 2.875
vt 0.5625 0
vt 0.5 0
vt 0.4375 0
vt 0.4375 2.875
vt 0.5625 2.875
vt 0.5625 0
vt 0.4375 2.875
vt 0.5625 2.875
vt 0.5625 0
vt 0.4375 0
vt 0.5 0.5625
vt 0.625 0.5625
vt 0.625 0.4375
vt 0.5 0.4375
vt 0.5 2.875
vt 0.625 2.875
vt 0.625 0
vt 0.5 0
vt 0.5 0
vt 0.5 2.875
vt 0.625 2.875
vt 0.625 0
vt 0.4375 0
vt 0.4375 2.875
vt 0.5625 2.875
vt 0.5625 0
vt 0.4375 2.875
vt 0.5625 2.875
vt 0.5625 0
vt 0.4375 0
vt 0.5 0.5625
vt 0.625 0.5625
vt 0.625 0.4375
vt 0.5 0.4375
vt 0.5 2.875
vt 0.625 2.875
vt 0.625 0
vt 0.5 0
vt 0.5 0
vt 0.5 2.875
vt 0.625 2.875
vt 0.625 0
vt 0.4375 0
vt 0.4375 2.875
vt 0.5625 2.875
vt 0.5625 0
vt 0.4375 2.875
vt 0.5625 2.875
vt 0.5625 0
vt 0.4375 0
vt 0.5 0.5625
vt 0.625 0.5625
vt 0.625 0.4375
vt 0.5 0.4375
vt 0.5 2.875
vt 0.625 2.875
vt 0.625 0
vt 0.5 0
vt 0.5 0
vt 0.5 2.875
vt 0.625 2.875
vt 0.625 0
vt 0.125 1
vt 0 1
vt 0 0.875
vt 0.125 0.875
vt 0.125 0.875
vt 0.125 1
vt 0 1
vt 0 0.875
vt 0 0.875
vt 1 0.875
vt 1 1
vt 0 1
vt 0 1
vt 1 1
vt 1 0.875
vt 0 0.875
vt 1 0.875
vt 1 1
vt 0 1
vt 0 0.875
vt 1 1
vt 0 1
vt 0 0.875
vt 1 0.875
vt 0.0625 0.875
vt 0.1875 0.875
vt 0.1875 1
vt 0.0625 1
vt 0.0625 1
vt 0.1875 1
vt 0.1875 0.875
vt 0.0625 0.875
vt 0.1875 0.875
vt 0.1875 1
vt 0.0625 1
vt 0.0625 0.875
vt 0.1875 1
vt 0.0625 1
vt 0.0625 0.875
vt 0.1875 0.875
vt 0.0625 0.875
vt 0.1875 0.875
vt 0.1875 1
vt 0.0625 1
vt 0.0625 1
vt 0.1875 1
vt 0.1875 0.875
vt 0.0625 0.875
vt 0.1875 0.875
vt 0.1875 1
vt 0.0625 1
vt 0.0625 0.875
vt 0.1875 1
vt 0.0625 1
vt 0.0625 0.875
vt 0.1875 0.875
vt 0.0625 0.875
vt 0.1875 0.875
vt 0.1875 1
vt 0.0625 1
vt 0.0625 1
vt 0.1875 1
vt 0.1875 0.875
vt 0.0625 0.875
vt 0.1875 0.875
vt 0.1875 1
vt 0.0625 1
vt 0.0625 0.875
vt 0.1875 1
vt 0.0625 1
vt 0.0625 0.875
vt 0.1875 0.875
vt 0.0625 0.875
vt 0.1875 0.875
vt 0.1875 1
vt 0.0625 1
vt 0.0625 1
vt 0.1875 1
vt 0.1875 0.875
vt 0.0625 0.875
vt 0.1875 0.875
vt 0.1875 1
vt 0.0625 1
vt 0.0625 0.875
vt 0.1875 1
vt 0.0625 1
vt 0.0625 0.875
vt 0.1875 0.875
vt 0.0625 0.875
vt 0.1875 0.875
vt 0.1875 1
vt 0.0625 1
vt 0.0625 1
vt 0.1875 1
vt 0.1875 0.875
vt 0.0625 0.875
vt 0.1875 0.875
vt 0.1875 1
vt 0.0625 1
vt 0.0625 0.875
vt 0.375 0.875
vt 0.25 0.875
vt 0.25 0.75
vt 0.375 0.75
vt 0.0625 0.875
vt 0.1875 0.875
vt 0.1875 1
vt 0.0625 1
vt 0.0625 1
vt 0.1875 1
vt 0.1875 0.875
vt 0.0625 0.875
vt 0.1875 0.875
vt 0.1875 1
vt 0.0625 1
vt 0.0625 0.875
vt 0.625 0.875
vt 0.5 0.875
vt 0.5 0.75
vt 0.625 0.75
vt 0.0625 0.875
vt 0.1875 0.875
vt 0.1875 1
vt 0.0625 1
vt 0.0625 1
vt 0.1875 1
vt 0.1875 0.875
vt 0.0625 0.875
vt 0.1875 0.875
vt 0.1875 1
vt 0.0625 1
vt 0.0625 0.875
vt 0.625 0.875
vt 0.5 0.875
vt 0.5 0.75
vt 0.625 0.75
vt 0.0625 0.875
vt 0.1875 0.875
vt 0.1875 1
vt 0.0625 1
vt 0.0625 1
vt 0.1875 1
vt 0.1875 0.875
vt 0.0625 0.875
vt 0.1875 0.875
vt 0.1875 1
vt 0.0625 1
vt 0.0625 0.875
vt 0.375 0.875
vt 0.25 0.875
vt 0.25 0.75
vt 0.375 0.75
vt 0.0625 0.875
vt 0.1875 0.875
vt 0.1875 1
vt 0.0625 1
vt 0.0625 1
vt 0.1875 1
vt 0.1875 0.875
vt 0.0625 0.875
vt 0.1875 0.875
vt 0.1875 1
vt 0.0625 1
vt 0.0625 0.875
vt 0.1875 1
vt 0.0625 1
vt 0.0625 0.875
vt 0.1875 0.875
vt 0.0625 0.875
vt 0.1875 0.875
vt 0.1875 1
vt 0.0625 1
vt 0.0625 1
vt 0.1875 1
vt 0.1875 0.875
vt 0.0625 0.875
vt 0.1875 0.875
vt 0.1875 1
vt 0.0625 1
vt 0.0625 0.875
vt 0.1875 1
vt 0.0625 1
vt 0.0625 0.875
vt 0.1875 0.875
vt 0.0625 0.875
vt 0.1875 0.875
vt 0.1875 1
vt 0.0625 1
vt 0.0625 1
vt 0.1875 1
vt 0.1875 0.875
vt 0.0625 0.875
vt 0.1875 0.875
vt 0.1875 1
vt 0.0625 1
vt 0.0625 0.875
vt 0.1875 1
vt 0.0625 1
vt 0.0625 0.875
vt 0.1875 0.875
vt 0.0625 0.875
vt 0.1875 0.875
vt 0.1875 1
vt 0.0625 1
vt 0.0625 1
vt 0.1875 1
vt 0.1875 0.875
vt 0.0625 0.875
vt 0.1875 0.875
vt 0.1875 1
vt 0.0625 1
vt 0.0625 0.875
vt 0.1875 1
vt 0.0625 1
vt 0.0625 0.875
vt 0.1875 0.875
vt 0.0625 0.875
vt 0.1875 0.875
vt 0.1875 1
vt 0.0625 1
vt 0.0625 1
vt 0.1875 1
vt 0.1875 0.875
vt 0.0625 0.875
vt 0.1875 0.875
vt 0.1875 1
vt 0.0625 1
vt 0.0625 0.875
vt 0.1875 1
vt 0.0625 1
vt 0.0625 0.875
vt 0.1875 0.875
vt 0.0625 0.875
vt 0.1875 0.875
vt 0.1875 1
vt 0.0625 1
vt 0.0625 1
vt 0.1875 1
vt 0.1875 0.875
vt 0.0625 0.875
vt 0.1875 0.875
vt 0.1875 1
vt 0.0625 1
vt 0.0625 0.875
vt 0.1875 1
vt 0.0625 1
vt 0.0625 0.875
vt 0.1875 0.875
vt 0.0625 0.875
vt 0.1875 0.875
vt 0.1875 1
vt 0.0625 1
vt 0.0625 1
vt 0.1875 1
vt 0.1875 0.875
vt 0.0625 0.875
vt 0.1875 0.875
vt 0.1875 1
vt 0.0625 1
vt 0.0625 0.875
vt 0.1875 1
vt 0.0625 1
vt 0.0625 0.875
vt 0.1875 0.875
vt 0.0625 0.875
vt 0.1875 0.875
vt 0.1875 1
vt 0.0625 1
vt 0.0625 1
vt 0.1875 1
vt 0.1875 0.875
vt 0.0625 0.875
vt 0.1875 0.875
vt 0.1875 1
vt 0.0625 1
vt 0.0625 0.875
vt 0.1875 1
vt 0.0625 1
vt 0.0625 0.875
vt 0.1875 0.875
vt 0.0625 0.875
vt 0.1875 0.875
vt 0.1875 1
vt 0.0625 1
vt 0.0625 1
vt 0.1875 1
vt 0.1875 0.875
vt 0.0625 0.875
vt 0.1875 0.875
vt 0.1875 1
vt 0.0625 1
vt 0.0625 0.875
vt 0.1875 1
vt 0.0625 1
vt 0.0625 0.875
vt 0.1875 0.875
vt 0.0625 0.875
vt 0.1875 0.875
vt 0.1875 1
vt 0.0625 1
vt 0.0625 1
vt 0.1875 1
vt 0.1875 0.875
vt 0.0625 0.875
vt 0.1875 0.875
vt 0.1875 1
vt 0.0625 1
vt 0.0625 0.875
vt 0.1875 1
vt 0.0625 1
vt 0.0625 0.875
vt 0.1875 0.875
vt 0.0625 0.875
vt 0.1875 0.875
vt 0.1875 1
vt 0.0625 1
vt 0.0625 1
vt 0.1875 1
vt 0.1875 0.875
vt 0.0625 0.875
vt 0.1875 0.875
vt 0.1875 1
vt 0.0625 1
vt 0.0625 0.875
vt 0.1875 1
vt 0.0625 1
vt 0.0625 0.875
vt 0.1875 0.875
vt 0.0625 0.875
vt 0.1875 0.875
vt 0.1875 1
vt 0.0625 1
vt 0.0625 1
vt 0.1875 1
vt 0.1875 0.875
vt 0.0625 0.875
vt 0.1875 0.875
vt 0.1875 1
vt 0.0625 1
vt 0.0625 0.875
vt 0.1875 1
vt 0.0625 1
vt 0.0625 0.875
vt 0.1875 0.875
vt 0.0625 0.875
vt 0.1875 0.875
vt 0.1875 1
vt 0.0625 1
vt 0.0625 1
vt 0.1875 1
vt 0.1875 0.875
vt 0.0625 0.875
vt 0.1875 0.875
vt 0.1875 1
vt 0.0625 1
vt 0.0625 0.875
vt 0.1875 1
vt 0.0625 1
vt 0.0625 0.875
vt 0.1875 0.875
vt 0.0625 0.875
vt 0.1875 0.875
vt 0.1875 1
vt 0.0625 1
vt 0.0625 1
vt 0.1875 1
vt 0.1875 0.875
vt 0.0625 0.875
vt 0.1875 0.875
vt 0.1875 1
vt 0.0625 1
vt 0.0625 0.875
vt 0.1875 1
vt 0.0625 1
vt 0.0625 0.875
vt 0.1875 0.875
vt 0.0625 0.875
vt 0.1875 0.875
vt 0.1875 1
vt 0.0625 1
vt 0.0625 1
vt 0.1875 1
vt 0.1875 0.875
vt 0.0625 0.875
vt 0.1875 0.875
vt 0.1875 1
vt 0.0625 1
vt 0.0625 0.875
vt 0.1875 1
vt 0.0625 1
vt 0.0625 0.875
vt 0.1875 0.875
vt 0.0625 0.875
vt 0.1875 0.875
vt 0.1875 1
vt 0.0625 1
vt 0.0625 1
vt 0.1875 1
vt 0.1875 0.875
vt 0.0625 0.875
vt 0.1875 0.875
vt 0.1875 1
vt 0.0625 1
vt 0.0625 0.875
vt 0.1875 1
vt 0.0625 1
vt 0.0625 0.875
vt 0.1875 0.875
vt 0.0625 0.875
vt 0.1875 0.875
vt 0.1875 1
vt 0.0625 1
vt 0.0625 1
vt 0.1875 1
vt 0.1875 0.875
vt 0.0625 0.875
vt 0.1875 0.875
vt 0.1875 1
vt 0.0625 1
vt 0.0625 0.875
vt 0.1875 1
vt 0.0625 1
vt 0.0625 0.875
vt 0.1875 0.875
vt 0.0625 0.875
vt 0.1875 0.875
vt 0.1875 1
vt 0.0625 1
vt 0.0625 1
vt 0.1875 1
vt 0.1875 0.875
vt 0.0625 0.875
vt 0.1875 0.875
vt 0.1875 1
vt 0.0625 1
vt 0.0625 0.875
vt 0.1875 1
vt 0.0625 1
vt 0.0625 0.875
vt 0.1875 0.875
vt 0.0625 0.875
vt 0.1875 0.875
vt 0.1875 1
vt 0.0625 1
vt 0.0625 1
vt 0.1875 1
vt 0.1875 0.875
vt 0.0625 0.875
vt 0.1875 0.875
vt 0.1875 1
vt 0.0625 1
vt 0.0625 0.875
vt 0.1875 1
vt 0.0625 1
vt 0.0625 0.875
vt 0.1875 0.875
vt 0.0625 0.875
vt 0.1875 0.875
vt 0.1875 1
vt 0.0625 1
vt 0.0625 1
vt 0.1875 1
vt 0.1875 0.875
vt 0.0625 0.875
vt 0.1875 0.875
vt 0.1875 1
vt 0.0625 1
vt 0.0625 0.875
vt 0.1875 1
vt 0.0625 1
vt 0.0625 0.875
vt 0.1875 0.875
vn -1 0 0
vn 1 0 0
vn 0 1 0
vn 0 0 1
vn 0 0 -1
vn -1 0 0
vn 1 0 0
vn 0 1 0
vn 0 0 1
vn 0 0 -1
vn -1 0 0
vn 1 0 0
vn 0 1 0
vn 0 0 -1
vn 0 0 1
vn -1 0 0
vn 1 0 0
vn 0 1 0
vn 0 0 -1
vn 0 0 1
vn -1 0 0
vn 1 0 0
vn 0 1 0
vn 0 0 -1
vn 0 0 1
vn 1 0 0
vn -1 0 0
vn 0 1 0
vn 0 1 0
vn 0 0 1
vn 0 0 -1
vn 0 1 0
vn 0 1 0
vn 0 0 1
vn 0 0 -1
vn 0 1 0
vn 0 1 0
vn 0 0 1
vn 0 0 -1
vn 0 1 0
vn 0 1 0
vn 0 0 1
vn 0 0 -1
vn 0 1 0
vn 0 1 0
vn 0 0 1
vn 0 0 -1
vn 0 1 0
vn 0 1 0
vn 0 0 1
vn 0 0 -1
vn 0 1 0
vn 0 1 0
vn 0 0 1
vn 0 0 -1
vn 0 1 0
vn 0 1 0
vn 0 0 1
vn 0 0 -1
vn 0 1 0
vn 0 1 0
vn 0 0 1
vn 0 0 -1
vn 0 1 0
vn 0 1 0
vn 0 0 1
vn 0 0 -1
vn 0 1 0
vn 0 1 0
vn 0 0 1
vn 0 0 -1
vn 0 1 0
vn 0 1 0
vn 0 0 1
vn 0 0 -1
vn 0 1 0
vn 0 1 0
vn 0 0 1
vn 0 0 -1
vn 0 1 0
vn 0 1 0
vn 0 0 1
vn 0 0 -1
vn 0 1 0
vn 0 1 0
vn 0 0 1
vn 0 0 -1
vn 0 1 0
vn 0 1 0
vn 0 0 1
vn 0 0 -1
vn 0 1 0
vn 0 1 0
vn 0 0 1
vn 0 0 -1
vn 0 1 0
vn 0 1 0
vn 0 0 1
vn 0 0 -1
vn 0 1 0
vn 0 1 0
vn 0 0 1
vn 0 0 -1
vn 0 1 0
vn 0 1 0
vn 0 0 1
vn 0 0 -1
vn 0 1 0
vn 0 1 0
vn 0 0 1
vn 0 0 -1
vn 0 1 0
vn 0 1 0
vn 0 0 1
vn 0 0 -1
vn 0 1 0
vn 0 1 0
vn 0 0 1
vn 0 0 -1
vn 0 1 0
vn 0 1 0
vn 0 0 1
vn 0 0 -1
vn 0 1 0
vn 0 1 0
vn 0 0 1
vn 0 0 -1
vn 0 1 0
vn 0 1 0
vn 0 0 1
vn 0 0 -1
vn 0 1 0
vn 0 1 0
vn 0 0 1
vn 0 0 -1
vn 0 1 0
vn 0 1 0
vn 0 0 1
vn 0 0 -1
vn 0 1 0
vn 0 1 0
vn 0 0 1
vn 0 0 -1
usemtl m_8b5fa2be-0ae4-5462-5d29-1408a8909891
f 3/1/1 1/2/1 2/3/1 4/4/1
f 6/5/2 5/6/2 7/7/2 8/8/2
f 7/9/3 3/10/3 4/11/3 8/12/3
f 3/13/4 1/14/4 5/15/4 7/16/4
f 6/17/5 2/18/5 4/19/5 8/20/5
f 11/21/6 9/22/6 10/23/6 12/24/6
f 14/25/7 13/26/7 15/27/7 16/28/7
f 15/29/8 11/30/8 12/31/8 16/32/8
f 11/33/9 9/34/9 13/35/9 15/36/9
f 14/37/10 10/38/10 12/39/10 16/40/10
f 19/41/11 17/42/11 18/43/11 20/44/11
f 22/45/12 21/46/12 23/47/12 24/48/12
f 23/49/13 19/50/13 20/51/13 24/52/13
f 21/53/14 17/54/14 19/55/14 23/56/14
f 20/57/15 18/58/15 22/59/15 24/60/15
f 27/61/16 25/62/16 26/63/16 28/64/16
f 30/65/17 29/66/17 31/67/17 32/68/17
f 31/69/18 27/70/18 28/71/18 32/72/18
f 29/73/19 25/74/19 27/75/19 31/76/19
f 28/77/20 26/78/20 30/79/20 32/80/20
f 35/81/21 33/82/21 34/83/21 36/84/21
f 38/85/22 37/86/22 39/87/22 40/88/22
f 39/89/23 35/90/23 36/91/23 40/92/23
f 37/93/24 33/94/24 35/95/24 39/96/24
f 36/97/25 34/98/25 38/99/25 40/100/25
f 42/101/26 41/102/26 43/103/26 44/104/26
f 47/105/27 45/106/27 46/107/27 48/108/27
f 45/109/28 41/110/28 42/111/28 46/112/28
f 47/113/29 43/114/29 44/115/29 48/116/29
f 43/117/30 41/118/30 45/119/30 47/120/30
f 46/121/31 42/122/31 44/123/31 48/124/31
f 53/125/32 49/126/32 50/127/32 54/128/32
f 55/129/33 51/130/33 52/131/33 56/132/33
f 51/133/34 49/134/34 53/135/34 55/136/34
f 54/137/35 50/138/35 52/139/35 56/140/35
f 61/141/36 57/142/36 58/143/36 62/144/36
f 63/145/37 59/146/37 60/147/37 64/148/37
f 59/149/38 57/150/38 61/151/38 63/152/38
f 62/153/39 58/154/39 60/155/39 64/156/39
f 69/157/40 65/158/40 66/159/40 70/160/40
f 71/161/41 67/162/41 68/163/41 72/164/41
f 67/165/42 65/166/42 69/167/42 71/168/42
f 70/169/43 66/170/43 68/171/43 72/172/43
f 77/173/44 73/174/44 74/175/44 78/176/44
f 79/177/45 75/178/45 76/179/45 80/180/45
f 75/181/46 73/182/46 77/183/46 79/184/46
f 78/185/47 74/186/47 76/187/47 80/188/47
f 85/189/48 81/190/48 82/191/48 86/192/48
f 87/193/49 83/194/49 84/195/49 88/196/49
f 83/197/50 81/198/50 85/199/50 87/200/50
f 86/201/51 82/202/51 84/203/51 88/204/51
f 93/205/52 89/206/52 90/207/52 94/208/52
f 95/209/53 91/210/53 92/211/53 96/212/53
f 91/213/54 89/214/54 93/215/54 95/216/54
f 94/217/55 90/218/55 92/219/55 96/220/55
f 101/221/56 97/222/56 98/223/56 102/224/56
f 103/225/57 99/226/57 100/227/57 104/228/57
f 99/229/58 97/230/58 101/231/58 103/232/58
f 102/233/59 98/234/59 100/235/59 104/236/59
f 109/237/60 105/238/60 106/239/60 110/240/60
f 111/241/61 107/242/61 108/243/61 112/244/61
f 107/245/62 105/246/62 109/247/62 111/248/62
f 110/249/63 106/250/63 108/251/63 112/252/63
f 117/253/64 113/254/64 114/255/64 118/256/64
f 119/257/65 115/258/65 116/259/65 120/260/65
f 115/261/66 113/262/66 117/263/66 119/264/66
f 118/265/67 114/266/67 116/267/67 120/268/67
f 125/269/68 121/270/68 122/271/68 126/272/68
f 127/273/69 123/274/69 124/275/69 128/276/69
f 123/277/70 121/278/70 125/279/70 127/280/70
f 126/281/71 122/282/71 124/283/71 128/284/71
f 133/285/72 129/286/72 130/287/72 134/288/72
f 135/289/73 131/290/73 132/291/73 136/292/73
f 131/293/74 129/294/74 133/295/74 135/296/74
f 134/297/75 130/298/75 132/299/75 136/300/75
f 141/301/76 137/302/76 138/303/76 142/304/76
f 143/305/77 139/306/77 140/307/77 144/308/77
f 139/309/78 137/310/78 141/311/78 143/312/78
f 142/313/79 138/314/79 140/315/79 144/316/79
f 149/317/80 145/318/80 146/319/80 150/320/80
f 151/321/81 147/322/81 148/323/81 152/324/81
f 147/325/82 145/326/82 149/327/82 151/328/82
f 150/329/83 146/330/83 148/331/83 152/332/83
f 157/333/84 153/334/84 154/335/84 158/336/84
f 159/337/85 155/338/85 156/339/85 160/340/85
f 155/341/86 153/342/86 157/343/86 159/344/86
f 158/345/87 154/346/87 156/347/87 160/348/87
f 165/349/88 161/350/88 162/351/88 166/352/88
f 167/353/89 163/354/89 164/355/89 168/356/89
f 163/357/90 161/358/90 165/359/90 167/360/90
f 166/361/91 162/362/91 164/363/91 168/364/91
f 173/365/92 169/366/92 170/367/92 174/368/92
f 175/369/93 171/370/93 172/371/93 176/372/93
f 171/373/94 169/374/94 173/375/94 175/376/94
f 174/377/95 170/378/95 172/379/95 176/380/95
f 181/381/96 177/382/96 178/383/96 182/384/96
f 183/385/97 179/386/97 180/387/97 184/388/97
f 179/389/98 177/390/98 181/391/98 183/392/98
f 182/393/99 178/394/99 180/395/99 184/396/99
f 189/397/100 185/398/100 186/399/100 190/400/100
f 191/401/101 187/402/101 188/403/101 192/404/101
f 187/405/102 185/406/102 189/407/102 191/408/102
f 190/409/103 186/410/103 188/411/103 192/412/103
f 197/413/104 193/414/104 194/415/104 198/416/104
f 199/417/105 195/418/105 196/419/105 200/420/105
f 195/421/106 193/422/106 197/423/106 199/424/106
f 198/425/107 194/426/107 196/427/107 200/428/107
f 205/429/108 201/430/108 202/431/108 206/432/108
f 207/433/109 203/434/109 204/435/109 208/436/109
f 203/437/110 201/438/110 205/439/110 207/440/110
f 206/441/111 202/442/111 204/443/111 208/444/111
f 213/445/112 209/446/112 210/447/112 214/448/112
f 215/449/113 211/450/113 212/451/113 216/452/113
f 211/453/114 209/454/114 213/455/114 215/456/114
f 214/457/115 210/458/115 212/459/115 216/460/115
f 221/461/116 217/462/116 218/463/116 222/464/116
f 223/465/117 219/466/117 220/467/117 224/468/117
f 219/469/118 217/470/118 221/471/118 223/472/118
f 222/473/119 218/474/119 220/475/119 224/476/119
f 229/477/120 225/478/120 226/479/120 230/480/120
f 231/481/121 227/482/121 228/483/121 232/484/121
f 227/485/122 225/486/122 229/487/122 231/488/122
f 230/489/123 226/490/123 228/491/123 232/492/123
f 237/493/124 233/494/124 234/495/124 238/496/124
f 239/497/125 235/498/125 236/499/125 240/500/125
f 235/501/126 233/502/126 237/503/126 239/504/126
f 238/505/127 234/506/127 236/507/127 240/508/127
f 245/509/128 241/510/128 242/511/128 246/512/128
f 247/513/129 243/514/129 244/515/129 248/516/129
f 243/517/130 241/518/130 245/519/130 247/520/130
f 246/521/131 242/522/131 244/523/131 248/524/131
f 253/525/132 249/526/132 250/527/132 254/528/132
f 255/529/133 251/530/133 252/531/133 256/532/133
f 251/533/134 249/534/134 253/535/134 255/536/134
f 254/537/135 250/538/135 252/539/135 256/540/135
f 261/541/136 257/542/136 258/543/136 262/544/136
f 263/545/137 259/546/137 260/547/137 264/548/137
f 259/549/138 257/550/138 261/551/138 263/552/138
f 262/553/139 258/554/139 260/555/139 264/556/139
f 269/557/140 265/558/140 266/559/140 270/560/140
f 271/561/141 267/562/141 268/563/141 272/564/141
f 267/565/142 265/566/142 269/567/142 271/568/142
f 270/569/143 266/570/143 268/571/143 272/572/143
