# Made in Blockbench 5.1.6
mtllib portcullis_half.mtl

g portcullis
v 0.5 1.5 0.0625
v 0.5 1.5 -0.0625
v 0.5 1.375 0.0625
v 0.5 1.375 -0.0625
v -0.5 1.5 0.0625
v -0.5 1.5 -0.0625
v -0.5 1.375 0.0625
v -0.5 1.375 -0.0625
v 0.4375 1.125 0.0625
v 0.4375 1.125 -0.0625
v 0.4375 1 0.0625
v 0.4375 1 -0.0625
v 0.3125 1.125 0.0625
v 0.3125 1.125 -0.0625
v 0.3125 1 0.0625
v 0.3125 1 -0.0625
v 0.1875 1.125 0.0625
v 0.1875 1.125 -0.0625
v 0.1875 1 0.0625
v 0.1875 1 -0.0625
v 0.0625 1.125 0.0625
v 0.0625 1.125 -0.0625
v 0.0625 1 0.0625
v 0.0625 1 -0.0625
v -0.0625 1.125 0.0625
v -0.0625 1.125 -0.0625
v -0.0625 1 0.0625
v -0.0625 1 -0.0625
v -0.1875 1.125 0.0625
v -0.1875 1.125 -0.0625
v -0.1875 1 0.0625
v -0.1875 1 -0.0625
v -0.3125 1.125 0.0625
v -0.3125 1.125 -0.0625
v -0.3125 1 0.0625
v -0.3125 1 -0.0625
v -0.4375 1.125 0.0625
v -0.4375 1.125 -0.0625
v -0.4375 1 0.0625
v -0.4375 1 -0.0625
v 0.4375 0.75 0.0625
v 0.4375 0.75 -0.0625
v 0.4375 0.625 0.0625
v 0.4375 0.625 -0.0625
v 0.3125 0.75 0.0625
v 0.3125 0.75 -0.0625
v 0.3125 0.625 0.0625
v 0.3125 0.625 -0.0625
v 0.1875 0.75 0.0625
v 0.1875 0.75 -0.0625
v 0.1875 0.625 0.0625
v 0.1875 0.625 -0.0625
v 0.0625 0.75 0.0625
v 0.0625 0.75 -0.0625
v 0.0625 0.625 0.0625
v 0.0625 0.625 -0.0625
v -0.0625 0.75 0.0625
v -0.0625 0.75 -0.0625
v -0.0625 0.625 0.0625
v -0.0625 0.625 -0.0625
v -0.1875 0.75 0.0625
v -0.1875 0.75 -0.0625
v -0.1875 0.625 0.0625
v -0.1875 0.625 -0.0625
v -0.3125 0.75 0.0625
v -0.3125 0.75 -0.0625
v -0.3125 0.625 0.0625
v -0.3125 0.625 -0.0625
v -0.4375 0.75 0.0625
v -0.4375 0.75 -0.0625
v -0.4375 0.625 0.0625
v -0.4375 0.625 -0.0625
v 0.4375 0.375 0.0625
v 0.4375 0.375 -0.0625
v 0.4375 0.25 0.0625
v 0.4375 0.25 -0.0625
v 0.3125 0.375 0.0625
v 0.3125 0.375 -0.0625
v 0.3125 0.25 0.0625
v 0.3125 0.25 -0.0625
v 0.1875 0.375 0.0625
v 0.1875 0.375 -0.0625
v 0.1875 0.25 0.0625
v 0.1875 0.25 -0.0625
v 0.0625 0.375 0.0625
v 0.0625 0.375 -0.0625
v 0.0625 0.25 0.0625
v 0.0625 0.25 -0.0625
v -0.0625 0.375 0.0625
v -0.0625 0.375 -0.0625
v -0.0625 0.25 0.0625
v -0.0625 0.25 -0.0625
v -0.1875 0.375 0.0625
v -0.1875 0.375 -0.0625
v -0.1875 0.25 0.0625
v -0.1875 0.25 -0.0625
v -0.3125 0.375 0.0625
v -0.3125 0.375 -0.0625
v -0.3125 0.25 0.0625
v -0.3125 0.25 -0.0625
v -0.4375 0.375 0.0625
v -0.4375 0.375 -0.0625
v -0.4375 0.25 0.0625
v -0.4375 0.25 -0.0625
v 0.4375 0 0.0625
v 0.4375 0 -0.0625
v 0.4375 -0.125 0.0625
v 0.4375 -0.125 -0.0625
v 0.3125 0 0.0625
v 0.3125 0 -0.0625
v 0.3125 -0.125 0.0625
v 0.3125 -0.125 -0.0625
v 0.1875 0 0.0625
v 0.1875 0 -0.0625
v 0.1875 -0.125 0.0625
v 0.1875 -0.125 -0.0625
v 0.0625 0 0.0625
v 0.0625 0 -0.0625
v 0.0625 -0.125 0.0625
v 0.0625 -0.125 -0.0625
v -0.0625 0 0.0625
v -0.0625 0 -0.0625
v -0.0625 -0.125 0.0625
v -0.0625 -0.125 -0.0625
v -0.1875 0 0.0625
v -0.1875 0 -0.0625
v -0.1875 -0.125 0.0625
v -0.1875 -0.125 -0.0625
v -0.3125 0 0.0625
v -0.3125 0 -0.0625
v -0.3125 -0.125 0.0625
v -0.3125 -0.125 -0.0625
v -0.4375 0 0.0625
v -0.4375 0 -0.0625
v -0.4375 -0.125 0.0625
v -0.4375 -0.125 -0.0625
v 0.5 -0.375 0.0625
v 0.5 -0.375 -0.0625
v 0.4375 -0.375 0.0625
v 0.4375 -0.375 -0.0625
v -0.4375 -0.375 0.0625
v -0.4375 -0.375 -0.0625
v -0.5 -0.375 0.0625
v -0.5 -0.375 -0.0625
v 0.3125 -0.375 0.0625
v 0.3125 -0.375 -0.0625
v 0.1875 -0.375 0.0625
v 0.1875 -0.375 -0.0625
v -0.1875 -0.375 0.0625
v -0.1875 -0.375 -0.0625
v -0.3125 -0.375 0.0625
v -0.3125 -0.375 -0.0625
v 0.0625 -0.375 0.0625
v 0.0625 -0.375 -0.0625
v -0.0625 -0.375 0.0625
v -0.0625 -0.375 -0.0625
v 0.5 1.375 0.0625
v 0.5 1.375 -0.0625
v 0.5 -0.375 0.0625
v 0.5 -0.375 -0.0625
v 0.4375 1.375 0.0625
v 0.4375 1.375 -0.0625
v 0.4375 -0.375 0.0625
v 0.4375 -0.375 -0.0625
v -0.4375 1.375 0.0625
v -0.4375 1.375 -0.0625
v -0.4375 -0.375 0.0625
v -0.4375 -0.375 -0.0625
v -0.5 1.375 0.0625
v -0.5 1.375 -0.0625
v -0.5 -0.375 0.0625
v -0.5 -0.375 -0.0625
v 0.3125 1.375 0.0625
v 0.3125 1.375 -0.0625
v 0.3125 -0.375 0.0625
v 0.3125 -0.375 -0.0625
v 0.1875 1.375 0.0625
v 0.1875 1.375 -0.0625
v 0.1875 -0.375 0.0625
v 0.1875 -0.375 -0.0625
v -0.1875 1.375 0.0625
v -0.1875 1.375 -0.0625
v -0.1875 -0.375 0.0625
v -0.1875 -0.375 -0.0625
v -0.3125 1.375 0.0625
v -0.3125 1.375 -0.0625
v -0.3125 -0.375 0.0625
v -0.3125 -0.375 -0.0625
v 0.0625 1.375 0.0625
v 0.0625 1.375 -0.0625
v 0.0625 -0.375 0.0625
v 0.0625 -0.375 -0.0625
v -0.0625 1.375 0.0625
v -0.0625 1.375 -0.0625
v -0.0625 -0.375 0.0625
v -0.0625 -0.375 -0.0625
vt 0.125 1
vt 0 1
vt 0 0.875
vt 0.125 0.875
vt 0.125 0.875
vt 0.125 1
vt 0 1
vt 0 0.875
vt 0 0.875
vt 1 0.875
vt 1 1
vt 0 1
vt 0 1
vt 1 1
vt 1 0.875
vt 0 0.875
vt 1 0.875
vt 1 1
vt 0 1
vt 0 0.875
vt 1 1
vt 0 1
vt 0 0.875
vt 1 0.875
vt 0.0625 0.875
vt 0.1875 0.875
vt 0.1875 1
vt 0.0625 1
vt 0.0625 1
vt 0.1875 1
vt 0.1875 0.875
vt 0.0625 0.875
vt 0.1875 0.875
vt 0.1875 1
vt 0.0625 1
vt 0.0625 0.875
vt 0.375 0.875
vt 0.25 0.875
vt 0.25 0.75
vt 0.375 0.75
vt 0.0625 0.875
vt 0.1875 0.875
vt 0.1875 1
vt 0.0625 1
vt 0.0625 1
vt 0.1875 1
vt 0.1875 0.875
vt 0.0625 0.875
vt 0.1875 0.875
vt 0.1875 1
vt 0.0625 1
vt 0.0625 0.875
vt 0.625 0.875
vt 0.5 0.875
vt 0.5 0.75
vt 0.625 0.75
vt 0.0625 0.875
vt 0.1875 0.875
vt 0.1875 1
vt 0.0625 1
vt 0.0625 1
vt 0.1875 1
vt 0.1875 0.875
vt 0.0625 0.875
vt 0.1875 0.875
vt 0.1875 1
vt 0.0625 1
vt 0.0625 0.875
vt 0.625 0.875
vt 0.5 0.875
vt 0.5 0.75
vt 0.625 0.75
vt 0.0625 0.875
vt 0.1875 0.875
vt 0.1875 1
vt 0.0625 1
vt 0.0625 1
vt 0.1875 1
vt 0.1875 0.875
vt 0.0625 0.875
vt 0.1875 0.875
vt 0.1875 1
vt 0.0625 1
vt 0.0625 0.875
vt 0.375 0.875
vt 0.25 0.875
vt 0.25 0.75
vt 0.375 0.75
vt 0.0625 0.875
vt 0.1875 0.875
vt 0.1875 1
vt 0.0625 1
vt 0.0625 1
vt 0.1875 1
vt 0.1875 0.875
vt 0.0625 0.875
vt 0.1875 0.875
vt 0.1875 1
vt 0.0625 1
vt 0.0625 0.875
vt 0.1875 1
vt 0.0625 1
vt 0.0625 0.875
vt 0.1875 0.875
vt 0.0625 0.875
vt 0.1875 0.875
vt 0.1875 1
vt 0.0625 1
vt 0.0625 1
vt 0.1875 1
vt 0.1875 0.875
vt 0.0625 0.875
vt 0.1875 0.875
vt 0.1875 1
vt 0.0625 1
vt 0.0625 0.875
vt 0.1875 1
vt 0.0625 1
vt 0.0625 0.875
vt 0.1875 0.875
vt 0.0625 0.875
vt 0.1875 0.875
vt 0.1875 1
vt 0.0625 1
vt 0.0625 1
vt 0.1875 1
vt 0.1875 0.875
vt 0.0625 0.875
vt 0.1875 0.875
vt 0.1875 1
vt 0.0625 1
vt 0.0625 0.875
vt 0.1875 1
vt 0.0625 1
vt 0.0625 0.875
vt 0.1875 0.875
vt 0.0625 0.875
vt 0.1875 0.875
vt 0.1875 1
vt 0.0625 1
vt 0.0625 1
vt 0.1875 1
vt 0.1875 0.875
vt 0.0625 0.875
vt 0.1875 0.875
vt 0.1875 1
vt 0.0625 1
vt 0.0625 0.875
vt 0.1875 1
vt 0.0625 1
vt 0.0625 0.875
vt 0.1875 0.875
vt 0.0625 0.875
vt 0.1875 0.875
vt 0.1875 1
vt 0.0625 1
vt 0.0625 1
vt 0.1875 1
vt 0.1875 0.875
vt 0.0625 0.875
vt 0.1875 0.875
vt 0.1875 1
vt 0.0625 1
vt 0.0625 0.875
vt 0.1875 1
vt 0.0625 1
vt 0.0625 0.875
vt 0.1875 0.875
vt 0.0625 0.875
vt 0.1875 0.875
vt 0.1875 1
vt 0.0625 1
vt 0.0625 1
vt 0.1875 1
vt 0.1875 0.875
vt 0.0625 0.875
vt 0.1875 0.875
vt 0.1875 1
vt 0.0625 1
vt 0.0625 0.875
vt 0.1875 1
vt 0.0625 1
vt 0.0625 0.875
vt 0.1875 0.875
vt 0.0625 0.875
vt 0.1875 0.875
vt 0.1875 1
vt 0.0625 1
vt 0.0625 1
vt 0.1875 1
vt 0.1875 0.875
vt 0.0625 0.875
vt 0.1875 0.875
vt 0.1875 1
vt 0.0625 1
vt 0.0625 0.875
vt 0.1875 1
vt 0.0625 1
vt 0.0625 0.875
vt 0.1875 0.875
vt 0.0625 0.875
vt 0.1875 0.875
vt 0.1875 1
vt 0.0625 1
vt 0.0625 1
vt 0.1875 1
vt 0.1875 0.875
vt 0.0625 0.875
vt 0.1875 0.875
vt 0.1875 1
vt 0.0625 1
vt 0.0625 0.875
vt 0.1875 1
vt 0.0625 1
vt 0.0625 0.875
vt 0.1875 0.875
vt 0.0625 0.875
vt 0.1875 0.875
vt 0.1875 1
vt 0.0625 1
vt 0.0625 1
vt 0.1875 1
vt 0.1875 0.875
vt 0.0625 0.875
vt 0.1875 0.875
vt 0.1875 1
vt 0.0625 1
vt 0.0625 0.875
vt 0.1875 1
vt 0.0625 1
vt 0.0625 0.875
vt 0.1875 0.875
vt 0.0625 0.875
vt 0.1875 0.875
vt 0.1875 1
vt 0.0625 1
vt 0.0625 1
vt 0.1875 1
vt 0.1875 0.875
vt 0.0625 0.875
vt 0.1875 0.875
vt 0.1875 1
vt 0.0625 1
vt 0.0625 0.875
vt 0.1875 1
vt 0.0625 1
vt 0.0625 0.875
vt 0.1875 0.875
vt 0.0625 0.875
vt 0.1875 0.875
vt 0.1875 1
vt 0.0625 1
vt 0.0625 1
vt 0.1875 1
vt 0.1875 0.875
vt 0.0625 0.875
vt 0.1875 0.875
vt 0.1875 1
vt 0.0625 1
vt 0.0625 0.875
vt 0.1875 1
vt 0.0625 1
vt 0.0625 0.875
vt 0.1875 0.875
vt 0.0625 0.875
vt 0.1875 0.875
vt 0.1875 1
vt 0.0625 1
vt 0.0625 1
vt 0.1875 1
vt 0.1875 0.875
vt 0.0625 0.875
vt 0.1875 0.875
vt 0.1875 1
vt 0.0625 1
vt 0.0625 0.875
vt 0.1875 1
vt 0.0625 1
vt 0.0625 0.875
vt 0.1875 0.875
vt 0.5 0.5625
vt 0.5625 0.5625
vt 0.5625 0.4375
vt 0.5 0.4375
vt 0.5 0.5625
vt 0.5625 0.5625
vt 0.5625 0.4375
vt 0.5 0.4375
vt 0.5 0.5625
vt 0.625 0.5625
vt 0.625 0.4375
vt 0.5 0.4375
vt 0.5 0.5625
vt 0.625 0.5625
vt 0.625 0.4375
vt 0.5 0.4375
vt 0.5 0.5625
vt 0.625 0.5625
vt 0.625 0.4375
vt 0.5 0.4375
vt 0.5625 -0.75
vt 0.5625 1
vt 0.4375 1
vt 0.4375 -0.75
vt 0.5625 1
vt 0.4375 1
vt 0.4375 -0.75
vt 0.5625 -0.75
vt 0.625 -0.75
vt 0.625 1
vt 0.5625 1
vt 0.5625 -0.75
vt 0.625 1
vt 0.5625 1
vt 0.5625 -0.75
vt 0.625 -0.75
vt 0.5625 -0.75
vt 0.5625 1
vt 0.4375 1
vt 0.4375 -0.75
vt 0.5625 1
vt 0.4375 1
vt 0.4375 -0.75
vt 0.5625 -0.75
vt 0.625 -0.75
vt 0.625 1
vt 0.5625 1
vt 0.5625 -0.75
vt 0.625 1
vt 0.5625 1
vt 0.5625 -0.75
vt 0.625 -0.75
vt 0.5625 -0.75
vt 0.5625 1
vt 0.4375 1
vt 0.4375 -0.75
vt 0.5625 1
vt 0.4375 1
vt 0.4375 -0.75
vt 0.5625 -0.75
vt 0.6875 1
vt 0.5625 1
vt 0.5625 -0.75
vt 0.6875 -0.75
vt 0.6875 -0.75
vt 0.6875 1
vt 0.5625 1
vt 0.5625 -0.75
vt 0.5625 -0.75
vt 0.5625 1
vt 0.4375 1
vt 0.4375 -0.75
vt 0.5625 1
vt 0.4375 1
vt 0.4375 -0.75
vt 0.5625 -0.75
vt 0.6875 1
vt 0.5625 1
vt 0.5625 -0.75
vt 0.6875 -0.75
vt 0.6875 -0.75
vt 0.6875 1
vt 0.5625 1
vt 0.5625 -0.75
vt 0.5625 -0.75
vt 0.5625 1
vt 0.4375 1
vt 0.4375 -0.75
vt 0.5625 1
vt 0.4375 1
vt 0.4375 -0.75
vt 0.5625 -0.75
vt 0.6875 1
vt 0.5625 1
vt 0.5625 -0.75
vt 0.6875 -0.75
vt 0.6875 -0.75
vt 0.6875 1
vt 0.5625 1
vt 0.5625 -0.75
vn 1 0 0
vn -1 0 0
vn 0 1 0
vn 0 1 0
vn 0 0 1
vn 0 0 -1
vn 0 1 0
vn 0 1 0
vn 0 0 1
vn 0 0 -1
vn 0 1 0
vn 0 1 0
vn 0 0 1
vn 0 0 -1
vn 0 1 0
vn 0 1 0
vn 0 0 1
vn 0 0 -1
vn 0 1 0
vn 0 1 0
vn 0 0 1
vn 0 0 -1
vn 0 1 0
vn 0 1 0
vn 0 0 1
vn 0 0 -1
vn 0 1 0
vn 0 1 0
vn 0 0 1
vn 0 0 -1
vn 0 1 0
vn 0 1 0
vn 0 0 1
vn 0 0 -1
vn 0 1 0
vn 0 1 0
vn 0 0 1
vn 0 0 -1
vn 0 1 0
vn 0 1 0
vn 0 0 1
vn 0 0 -1
vn 0 1 0
vn 0 1 0
vn 0 0 1
vn 0 0 -1
vn 0 1 0
vn 0 1 0
vn 0 0 1
vn 0 0 -1
vn 0 1 0
vn 0 1 0
vn 0 0 1
vn 0 0 -1
vn 0 1 0
vn 0 1 0
vn 0 0 1
vn 0 0 -1
vn 0 1 0
vn 0 1 0
vn 0 0 1
vn 0 0 -1
vn 0 1 0
vn 0 1 0
vn 0 0 1
vn 0 0 -1
vn 0 1 0
vn 0 1 0
vn 0 0 1
vn 0 0 -1
vn 0 1 0
vn 0 1 0
vn 0 1 0
vn 0 1 0
vn 0 1 0
vn -1 0 0
vn 1 0 0
vn 0 0 1
vn 0 0 -1
vn -1 0 0
vn 1 0 0
vn 0 0 1
vn 0 0 -1
vn -1 0 0
vn 1 0 0
vn 0 0 -1
vn 0 0 1
vn -1 0 0
vn 1 0 0
vn 0 0 -1
vn 0 0 1
vn -1 0 0
vn 1 0 0
vn 0 0 -1
vn 0 0 1
usemtl m_8b5fa2be-0ae4-5462-5d29-1408a8909891
f 2/1/1 1/2/1 3/3/1 4/4/1
f 7/5/2 5/6/2 6/7/2 8/8/2
f 5/9/3 1/10/3 2/11/3 6/12/3
f 7/13/4 3/14/4 4/15/4 8/16/4
f 3/17/5 1/18/5 5/19/5 7/20/5
f 6/21/6 2/22/6 4/23/6 8/24/6
f 13/25/7 9/26/7 10/27/7 14/28/7
f 15/29/8 11/30/8 12/31/8 16/32/8
f 11/33/9 9/34/9 13/35/9 15/36/9
f 14/37/10 10/38/10 12/39/10 16/40/10
f 21/41/11 17/42/11 18/43/11 22/44/11
f 23/45/12 19/46/12 20/47/12 24/48/12
f 19/49/13 17/50/13 21/51/13 23/52/13
f 22/53/14 18/54/14 20/55/14 24/56/14
f 29/57/15 25/58/15 26/59/15 30/60/15
f 31/61/16 27/62/16 28/63/16 32/64/16
f 27/65/17 25/66/17 29/67/17 31/68/17
f 30/69/18 26/70/18 28/71/18 32/72/18
f 37/73/19 33/74/19 34/75/19 38/76/19
f 39/77/20 35/78/20 36/79/20 40/80/20
f 35/81/21 33/82/21 37/83/21 39/84/21
f 38/85/22 34/86/22 36/87/22 40/88/22
f 45/89/23 41/90/23 42/91/23 46/92/23
f 47/93/24 43/94/24 44/95/24 48/96/24
f 43/97/25 41/98/25 45/99/25 47/100/25
f 46/101/26 42/102/26 44/103/26 48/104/26
f 53/105/27 49/106/27 50/107/27 54/108/27
f 55/109/28 51/110/28 52/111/28 56/112/28
f 51/113/29 49/114/29 53/115/29 55/116/29
f 54/117/30 50/118/30 52/119/30 56/120/30
f 61/121/31 57/122/31 58/123/31 62/124/31
f 63/125/32 59/126/32 60/127/32 64/128/32
f 59/129/33 57/130/33 61/131/33 63/132/33
f 62/133/34 58/134/34 60/135/34 64/136/34
f 69/137/35 65/138/35 66/139/35 70/140/35
f 71/141/36 67/142/36 68/143/36 72/144/36
f 67/145/37 65/146/37 69/147/37 71/148/37
f 70/149/38 66/150/38 68/151/38 72/152/38
f 77/153/39 73/154/39 74/155/39 78/156/39
f 79/157/40 75/158/40 76/159/40 80/160/40
f 75/161/41 73/162/41 77/163/41 79/164/41
f 78/165/42 74/166/42 76/167/42 80/168/42
f 85/169/43 81/170/43 82/171/43 86/172/43
f 87/173/44 83/174/44 84/175/44 88/176/44
f 83/177/45 81/178/45 85/179/45 87/180/45
f 86/181/46 82/182/46 84/183/46 88/184/46
f 93/185/47 89/186/47 90/187/47 94/188/47
f 95/189/48 91/190/48 92/191/48 96/192/48
f 91/193/49 89/194/49 93/195/49 95/196/49
f 94/197/50 90/198/50 92/199/50 96/200/50
f 101/201/51 97/202/51 98/203/51 102/204/51
f 103/205/52 99/206/52 100/207/52 104/208/52
f 99/209/53 97/210/53 101/211/53 103/212/53
f 102/213/54 98/214/54 100/215/54 104/216/54
f 109/217/55 105/218/55 106/219/55 110/220/55
f 111/221/56 107/222/56 108/223/56 112/224/56
f 107/225/57 105/226/57 109/227/57 111/228/57
f 110/229/58 106/230/58 108/231/58 112/232/58
f 117/233/59 113/234/59 114/235/59 118/236/59
f 119/237/60 115/238/60 116/239/60 120/240/60
f 115/241/61 113/242/61 117/243/61 119/244/61
f 118/245/62 114/246/62 116/247/62 120/248/62
f 125/249/63 121/250/63 122/251/63 126/252/63
f 127/253/64 123/254/64 124/255/64 128/256/64
f 123/257/65 121/258/65 125/259/65 127/260/65
f 126/261/66 122/262/66 124/263/66 128/264/66
f 133/265/67 129/266/67 130/267/67 134/268/67
f 135/269/68 131/270/68 132/271/68 136/272/68
f 131/273/69 129/274/69 133/275/69 135/276/69
f 134/277/70 130/278/70 132/279/70 136/280/70
f 139/281/71 137/282/71 138/283/71 140/284/71
f 143/285/72 141/286/72 142/287/72 144/288/72
f 147/289/73 145/290/73 146/291/73 148/292/73
f 151/293/74 149/294/74 150/295/74 152/296/74
f 155/297/75 153/298/75 154/299/75 156/300/75
f 159/301/76 157/302/76 158/303/76 160/304/76
f 162/305/77 161/306/77 163/307/77 164/308/77
f 159/309/78 157/310/78 161/311/78 163/312/78
f 162/313/79 158/314/79 160/315/79 164/316/79
f 167/317/80 165/318/80 166/319/80 168/320/80
f 170/321/81 169/322/81 171/323/81 172/324/81
f 167/325/82 165/326/82 169/327/82 171/328/82
f 170/329/83 166/330/83 168/331/83 172/332/83
f 175/333/84 173/334/84 174/335/84 176/336/84
f 178/337/85 177/338/85 179/339/85 180/340/85
f 177/341/86 173/342/86 175/343/86 179/344/86
f 176/345/87 174/346/87 178/347/87 180/348/87
f 183/349/88 181/350/88 182/351/88 184/352/88
f 186/353/89 185/354/89 187/355/89 188/356/89
f 185/357/90 181/358/90 183/359/90 187/360/90
f 184/361/91 182/362/91 186/363/91 188/364/91
f 191/365/92 189/366/92 190/367/92 192/368/92
f 194/369/93 193/370/93 195/371/93 196/372/93
f 193/373/94 189/374/94 191/375/94 195/376/94
f 192/377/95 190/378/95 194/379/95 196/380/95
