# Made in Blockbench 5.1.6
mtllib single_arch_door_centered.mtl

o mat a
v 0.49999987504946586 1.5624998749983599 0.06250228085015125
v 0.4999999999995004 1.5624999999983598 -0.0624977191497238
v 0.49999987504946586 -0.500000125000609 0.06250021835015185
v 0.4999999999995004 -0.500000000000609 -0.062499781649723196
v -0.5000001249500345 1.5624998749993595 0.06250128124987467
v -0.5 1.5624999999993594 -0.062498718750000376
v -0.5000001249500345 -0.5000001249996093 0.06249921874987527
v -0.5 -0.4999999999996093 -0.06250078124999978
v 0.43749987504949706 1.6874998749983599 0.06250234337513391
v 0.4374999999995316 1.6874999999983598 -0.062497656624741126
v 0.43749987504949706 1.5624998749984225 0.06250221837513395
v 0.4374999999995316 1.5624999999984224 -0.06249778162474109
v -0.4375001249500658 1.6874998749992345 0.06250146872489193
v -0.43750000000003125 1.6874999999992344 -0.06249853127498312
v -0.4375001249500658 1.562499874999297 0.06250134372489197
v -0.43750000000003125 1.562499999999297 -0.06249865627498309
v 0.37499987504952825 1.749999874998391 0.06250234340011662
v 0.3749999999995628 1.7499999999983908 -0.06249765659975843
v 0.37499987504952825 1.6874998749984222 0.06250228090011664
v 0.3749999999995628 1.6874999999984222 -0.06249771909975841
v -0.37500012495009705 1.7499998749991406 0.06250159369990918
v -0.37500000000006245 1.7499999999991405 -0.06249840629996586
v -0.37500012495009705 1.6874998749991719 0.0625015311999092
v -0.37500000000006245 1.6874999999991718 -0.06249846879996584
v 0.31249987504955956 1.8124998749984222 0.0625023434250993
v 0.3124999999995941 1.8124999999984222 -0.06249765657477573
v 0.31249987504955956 1.7499998749984533 0.06250228092509932
v 0.3124999999995941 1.7499999999984532 -0.062497719074775714
v -0.31250012495012824 1.812499874999047 0.06250171867492646
v -0.3125000000000937 1.812499999999047 -0.06249828132494859
v -0.31250012495012824 1.7499998749990782 0.06250165617492648
v -0.3125000000000937 1.749999999999078 -0.06249834382494857
v 0.18749987504962196 1.874999874998516 0.06250228097506472
v 0.1874999999996565 1.8749999999985159 -0.06249771902481032
v 0.18749987504962196 1.8124998749985473 0.06250221847506474
v 0.1874999999996565 1.8124999999985472 -0.0624977815248103
v -0.1875001249501907 1.8749998749988908 0.06250190612496101
v -0.1875000000001561 1.8749999999988907 -0.062498093874914035
v -0.1875001249501907 1.812499874998922 0.06250184362496103
v -0.1875000000001561 1.812499999998922 -0.062498156374914016
v -0.1875001249501907 1.812499874998922 0.06250184362496103
v -0.1875000000001561 1.812499999998922 -0.062498156374914016
v -0.31250012495012824 1.812499874999047 0.06250171867492646
v -0.3125000000000937 1.812499999999047 -0.06249828132494859
v -0.31250012495012824 1.7499998749990782 0.06250165617492648
v -0.3125000000000937 1.749999999999078 -0.06249834382494857
v -0.37500012495009705 1.7499998749991406 0.06250159369990918
v -0.37500000000006245 1.7499999999991405 -0.06249840629996586
v -0.37500012495009705 1.6874998749991719 0.0625015311999092
v -0.37500000000006245 1.6874999999991718 -0.06249846879996584
v -0.4375001249500658 1.6874998749992345 0.06250146872489193
v -0.43750000000003125 1.6874999999992344 -0.06249853127498312
v -0.4375001249500658 1.562499874999297 0.06250134372489197
v -0.43750000000003125 1.562499999999297 -0.06249865627498309
v -0.5000001249500345 1.5624998749993595 0.06250128124987467
v -0.5 1.5624999999993594 -0.062498718750000376
v 0.49999987504946586 1.5624998749983599 0.06250228085015125
v 0.4999999999995004 1.5624999999983598 -0.0624977191497238
v 0.43749987504949706 1.5624998749984225 0.06250221837513395
v 0.4374999999995316 1.5624999999984224 -0.06249778162474109
v 0.43749987504949706 1.6874998749983599 0.06250234337513391
v 0.4374999999995316 1.6874999999983598 -0.062497656624741126
v 0.37499987504952825 1.6874998749984222 0.06250228090011664
v 0.3749999999995628 1.6874999999984222 -0.06249771909975841
v 0.37499987504952825 1.749999874998391 0.06250234340011662
v 0.3749999999995628 1.7499999999983908 -0.06249765659975843
v 0.31249987504955956 1.7499998749984533 0.06250228092509932
v 0.3124999999995941 1.7499999999984532 -0.062497719074775714
v 0.31249987504955956 1.8124998749984222 0.0625023434250993
v 0.3124999999995941 1.8124999999984222 -0.06249765657477573
v 0.18749987504962196 1.8124998749985473 0.06250221847506474
v 0.1874999999996565 1.8124999999985472 -0.0624977815248103
vt 0.8947368421052632 0.6875
vt 0.8421052631578947 0.6875
vt 0.8421052631578947 0
vt 0.8947368421052632 0
vt 0.9473684210526315 0
vt 0.9473684210526315 0.6875
vt 0.8947368421052632 0.6875
vt 0.8947368421052632 0
vt 0.42105263157894735 0
vt 0.42105263157894735 0.04166666666666663
vt 0 0.04166666666666663
vt 0 0
vt 0.8421052631578947 0
vt 0.8421052631578947 0.6875
vt 0.42105263157894735 0.6875
vt 0.42105263157894735 0
vt 0.42105263157894735 0.6875
vt 0 0.6875
vt 0 0
vt 0.42105263157894735 0
vt 0.9736842105263158 0.9791666666666666
vt 0.9210526315789473 0.9791666666666666
vt 0.9210526315789473 0.9375
vt 0.9736842105263158 0.9375
vt 0.9210526315789473 0.9375
vt 0.9210526315789473 0.9791666666666666
vt 0.868421052631579 0.9791666666666666
vt 0.868421052631579 0.9375
vt 0.8157894736842105 0.6875
vt 0.8157894736842105 0.7291666666666667
vt 0.4473684210526316 0.7291666666666667
vt 0.4473684210526316 0.6875
vt 0.39473684210526316 0.7291666666666667
vt 0.02631578947368421 0.7291666666666667
vt 0.02631578947368421 0.6875
vt 0.39473684210526316 0.6875
vt 0.9736842105263158 0.9375
vt 0.9210526315789473 0.9375
vt 0.9210526315789473 0.9166666666666666
vt 0.9736842105263158 0.9166666666666666
vt 1 0.08333333333333337
vt 1 0.10416666666666663
vt 0.9473684210526315 0.10416666666666663
vt 0.9473684210526315 0.08333333333333337
vt 0.7894736842105263 0.7291666666666667
vt 0.7894736842105263 0.75
vt 0.47368421052631576 0.75
vt 0.47368421052631576 0.7291666666666667
vt 0.3684210526315789 0.75
vt 0.05263157894736842 0.75
vt 0.05263157894736842 0.7291666666666667
vt 0.3684210526315789 0.7291666666666667
vt 0.9736842105263158 0.8333333333333334
vt 0.9210526315789473 0.8333333333333334
vt 0.9210526315789473 0.8125
vt 0.9736842105263158 0.8125
vt 1 0.10416666666666663
vt 1 0.125
vt 0.9473684210526315 0.125
vt 0.9473684210526315 0.10416666666666663
vt 0.7631578947368421 0.75
vt 0.7631578947368421 0.7708333333333334
vt 0.5 0.7708333333333334
vt 0.5 0.75
vt 0.34210526315789475 0.7708333333333334
vt 0.07894736842105263 0.7708333333333334
vt 0.07894736842105263 0.75
vt 0.34210526315789475 0.75
vt 0.9736842105263158 0.8125
vt 0.9210526315789473 0.8125
vt 0.9210526315789473 0.7916666666666666
vt 0.9736842105263158 0.7916666666666666
vt 0.9736842105263158 0.16666666666666663
vt 0.9736842105263158 0.1875
vt 0.9210526315789473 0.1875
vt 0.9210526315789473 0.16666666666666663
vt 0.5789473684210527 0.9375
vt 0.7368421052631579 0.9375
vt 0.7368421052631579 0.9791666666666666
vt 0.5789473684210527 0.9791666666666666
vt 0.7105263157894737 0.7708333333333334
vt 0.7105263157894737 0.7916666666666666
vt 0.5526315789473685 0.7916666666666666
vt 0.5526315789473685 0.7708333333333334
vt 0.2894736842105263 0.7916666666666666
vt 0.13157894736842105 0.7916666666666666
vt 0.13157894736842105 0.7708333333333334
vt 0.2894736842105263 0.7708333333333334
vt 0.4473684210526316 0.8958333333333334
vt 0.4473684210526316 0.9375
vt 0.39473684210526316 0.9375
vt 0.39473684210526316 0.8958333333333334
vt 0.42105263157894735 0.7916666666666666
vt 0.42105263157894735 0.8333333333333334
vt 0.39473684210526316 0.8333333333333334
vt 0.39473684210526316 0.7916666666666666
vt 0.42105263157894735 0.6041666666666667
vt 0.42105263157894735 0.6458333333333333
vt 0.39473684210526316 0.6458333333333333
vt 0.39473684210526316 0.6041666666666667
vt 0.42105263157894735 0.45833333333333337
vt 0.42105263157894735 0.5
vt 0.39473684210526316 0.5
vt 0.39473684210526316 0.45833333333333337
vt 0.4473684210526316 0.33333333333333337
vt 0.4473684210526316 0.375
vt 0.42105263157894735 0.375
vt 0.42105263157894735 0.33333333333333337
vt 0.4473684210526316 0.5625
vt 0.4473684210526316 0.6041666666666667
vt 0.42105263157894735 0.6041666666666667
vt 0.42105263157894735 0.5625
vt 0.4473684210526316 0.75
vt 0.4473684210526316 0.7916666666666666
vt 0.42105263157894735 0.7916666666666666
vt 0.42105263157894735 0.75
vt 0.4473684210526316 0.8333333333333334
vt 0.4473684210526316 0.875
vt 0.39473684210526316 0.875
vt 0.39473684210526316 0.8333333333333334
vn 0.9999999999995005 -9.995894856342928e-13 9.996002765727818e-7
vn -0.9999999999995005 9.995894856342928e-13 -9.996002765727818e-7
vn 1.0790647218633634e-17 -0.9999999999995 -9.99999999708113e-7
vn -9.996002765732813e-7 -9.999999997076135e-7 0.9999999999990004
vn 9.996002765732813e-7 9.999999997076135e-7 -0.9999999999990004
vn 0.9999999999995005 -9.995894856342928e-13 9.996002765727818e-7
vn -0.9999999999995005 9.995894856342928e-13 -9.996002765727818e-7
vn -9.996002765732813e-7 -9.999999997076135e-7 0.9999999999990004
vn 9.996002765732813e-7 9.999999997076135e-7 -0.9999999999990004
vn 0.9999999999995005 -9.995894856342928e-13 9.996002765727818e-7
vn -0.9999999999995005 9.995894856342928e-13 -9.996002765727818e-7
vn -9.996002765732813e-7 -9.999999997076135e-7 0.9999999999990004
vn 9.996002765732813e-7 9.999999997076135e-7 -0.9999999999990004
vn 0.9999999999995005 -9.995894856342928e-13 9.996002765727818e-7
vn -0.9999999999995005 9.995894856342928e-13 -9.996002765727818e-7
vn -9.996002765732813e-7 -9.999999997076135e-7 0.9999999999990004
vn 9.996002765732813e-7 9.999999997076135e-7 -0.9999999999990004
vn 0.9999999999995005 -9.995894856342928e-13 9.996002765727818e-7
vn -0.9999999999995005 9.995894856342928e-13 -9.996002765727818e-7
vn -1.0790647218633634e-17 0.9999999999995 9.99999999708113e-7
vn -9.996002765732813e-7 -9.999999997076135e-7 0.9999999999990004
vn 9.996002765732813e-7 9.999999997076135e-7 -0.9999999999990004
vn -1.0790647218633634e-17 0.9999999999995 9.99999999708113e-7
vn -1.0790647218633634e-17 0.9999999999995 9.99999999708113e-7
vn -1.0790647218633634e-17 0.9999999999995 9.99999999708113e-7
vn -1.0790647218633634e-17 0.9999999999995 9.99999999708113e-7
vn -1.0790647218633634e-17 0.9999999999995 9.99999999708113e-7
vn -1.0790647218633634e-17 0.9999999999995 9.99999999708113e-7
vn -1.0790647218633634e-17 0.9999999999995 9.99999999708113e-7
vn -1.0790647218633634e-17 0.9999999999995 9.99999999708113e-7
usemtl m_a2b1ae8b-7f6c-9253-8cec-27e1b3194839
f 2/1/1 1/2/1 3/3/1 4/4/1
f 7/5/2 5/6/2 6/7/2 8/8/2
f 4/9/3 3/10/3 7/11/3 8/12/3
f 3/13/4 1/14/4 5/15/4 7/16/4
f 6/17/5 2/18/5 4/19/5 8/20/5
f 10/21/6 9/22/6 11/23/6 12/24/6
f 15/25/7 13/26/7 14/27/7 16/28/7
f 11/29/8 9/30/8 13/31/8 15/32/8
f 14/33/9 10/34/9 12/35/9 16/36/9
f 18/37/10 17/38/10 19/39/10 20/40/10
f 23/41/11 21/42/11 22/43/11 24/44/11
f 19/45/12 17/46/12 21/47/12 23/48/12
f 22/49/13 18/50/13 20/51/13 24/52/13
f 26/53/14 25/54/14 27/55/14 28/56/14
f 31/57/15 29/58/15 30/59/15 32/60/15
f 27/61/16 25/62/16 29/63/16 31/64/16
f 30/65/17 26/66/17 28/67/17 32/68/17
f 34/69/18 33/70/18 35/71/18 36/72/18
f 39/73/19 37/74/19 38/75/19 40/76/19
f 37/77/20 33/78/20 34/79/20 38/80/20
f 35/81/21 33/82/21 37/83/21 39/84/21
f 38/85/22 34/86/22 36/87/22 40/88/22
f 41/89/23 42/90/23 44/91/23 43/92/23
f 45/93/24 46/94/24 48/95/24 47/96/24
f 49/97/25 50/98/25 52/99/25 51/100/25
f 53/101/26 54/102/26 56/103/26 55/104/26
f 57/105/27 58/106/27 60/107/27 59/108/27
f 61/109/28 62/110/28 64/111/28 63/112/28
f 65/113/29 66/114/29 68/115/29 67/116/29
f 69/117/30 70/118/30 72/119/30 71/120/30